<?xml version="1.0" standalone="no"?>
<!DOCTYPE svg PUBLIC "-//W3C//DTD SVG 20010904//EN"
 "http://www.w3.org/TR/2001/REC-SVG-20010904/DTD/svg10.dtd">
<svg version="1.0" xmlns="http://www.w3.org/2000/svg"
 width="1295.000000pt" height="1295.000000pt" viewBox="0 0 1295.000000 1295.000000"
 preserveAspectRatio="xMidYMid meet">
<metadata>
Created by potrace 1.11, written by Peter Selinger 2001-2013
</metadata>
<g transform="translate(0.000000,1295.000000) scale(0.100000,-0.100000)"
fill="#000000" stroke="none">
<path d="M4141 12834 c-37 -142 -67 -273 -120 -519 -60 -279 -91 -420 -113
-505 -20 -79 -118 -323 -155 -385 -20 -33 -92 -135 -160 -227 -120 -162 -192
-282 -228 -380 -10 -27 -21 -48 -25 -48 -9 0 -41 74 -68 160 -59 185 -64 385
-21 830 31 321 82 740 106 862 3 18 3 31 0 27 -9 -8 -163 -787 -181 -914 -20
-150 -23 -185 -41 -455 -22 -344 -33 -444 -60 -550 -47 -186 -68 -329 -69
-470 0 -74 3 -148 7 -163 16 -57 -12 -16 -43 64 -66 172 -79 236 -130 659 -41
346 -50 436 -59 600 l-7 145 -8 -100 c-18 -208 7 -702 60 -1180 27 -253 27
-306 -7 -575 -39 -310 -36 -482 11 -632 38 -124 -26 -40 -94 124 -163 389
-301 1060 -333 1618 -7 129 -8 132 -14 65 -11 -114 -10 -382 1 -500 16 -170
45 -349 100 -626 117 -589 128 -665 140 -984 12 -301 38 -506 85 -660 53 -172
52 -165 17 -125 -123 140 -288 534 -440 1050 -41 138 -154 584 -171 675 -13
71 -13 17 0 -106 12 -127 49 -317 96 -504 19 -77 39 -158 43 -180 10 -44 139
-489 189 -650 46 -144 69 -286 96 -590 28 -297 38 -358 90 -502 19 -54 35
-100 35 -103 0 -3 -25 22 -55 55 -82 89 -279 491 -423 860 -88 225 -207 595
-237 733 -4 18 -9 31 -12 28 -9 -8 47 -321 82 -466 19 -75 68 -232 110 -350
181 -506 230 -686 265 -980 42 -352 51 -417 70 -510 41 -194 103 -338 224
-518 38 -56 67 -105 64 -107 -12 -12 -232 278 -354 465 -44 67 -53 76 -88 81
-21 3 -42 12 -47 20 -13 22 -11 55 6 69 8 7 15 16 15 20 0 4 -31 72 -69 151
-131 276 -246 587 -320 867 -22 81 -40 141 -40 135 -2 -26 51 -334 80 -468 51
-237 114 -402 329 -870 192 -418 279 -706 330 -1100 39 -300 89 -437 243 -668
113 -171 248 -292 418 -378 72 -35 98 -54 102 -71 3 -13 15 -75 27 -138 35
-189 106 -497 185 -808 73 -283 75 -294 59 -324 -9 -17 -48 -85 -88 -152 -184
-306 -768 -1401 -1136 -2128 l-145 -287 -4 -120 c-3 -112 -2 -121 15 -121 13
0 25 15 38 48 130 326 622 1292 1051 2062 272 489 319 570 329 567 4 -1 24
-54 43 -117 50 -169 181 -554 208 -616 20 -45 31 -57 74 -79 28 -14 51 -21 51
-16 0 11 -66 222 -185 596 -40 127 -81 264 -90 305 l-18 75 48 75 c312 486
510 764 870 1223 79 100 104 126 120 123 11 -2 52 -12 90 -21 52 -13 129 -19
295 -22 204 -4 234 -3 313 16 197 47 441 196 621 379 32 33 98 109 145 168
135 170 317 324 491 417 431 231 611 342 773 478 118 98 269 267 169 188 -58
-45 -170 -123 -242 -167 -41 -25 -122 -76 -180 -112 -109 -70 -342 -201 -470
-265 -41 -21 -76 -41 -78 -46 -2 -5 -9 -9 -16 -9 -7 0 -64 -25 -127 -56 -63
-31 -134 -64 -159 -74 -25 -10 -63 -26 -85 -34 l-40 -16 35 27 c72 57 249 224
505 476 166 163 257 236 418 334 113 68 359 190 582 287 185 82 403 197 504
266 82 57 151 114 151 125 0 3 -29 -13 -63 -34 -71 -43 -326 -172 -427 -216
-36 -16 -157 -59 -271 -96 -239 -78 -319 -113 -465 -205 -112 -69 -228 -128
-246 -122 -6 2 18 21 53 43 151 91 346 264 509 450 101 115 201 193 336 262
134 69 373 167 483 198 242 68 494 180 619 276 91 68 151 120 112 95 -58 -37
-231 -127 -310 -162 -139 -61 -292 -108 -530 -164 -124 -28 -249 -60 -277 -71
-29 -10 -53 -15 -53 -10 0 5 24 26 53 48 28 22 97 80 152 129 275 246 516 383
915 520 69 24 126 49 128 56 1 8 -8 24 -22 37 l-25 23 -98 -32 c-54 -18 -147
-52 -208 -76 -98 -38 -158 -63 -418 -176 -37 -16 -80 -28 -95 -26 -23 3 -15 8
48 40 109 54 200 113 433 285 346 255 412 285 1054 481 38 11 53 21 55 35 4
24 28 35 28 13 0 -9 7 -16 15 -16 25 0 191 67 273 110 77 41 148 90 107 74
-201 -75 -478 -154 -647 -184 -64 -11 -168 -31 -232 -45 -64 -14 -121 -25
-128 -25 -7 1 34 25 92 55 58 30 179 109 269 175 310 229 342 246 671 354 352
117 454 164 552 256 l53 50 -55 -31 c-30 -17 -67 -40 -82 -51 -82 -58 -216
-102 -468 -153 -96 -19 -215 -44 -265 -55 -52 -11 -154 -22 -240 -26 -150 -7
-385 2 -385 14 0 4 16 18 35 31 61 41 183 171 283 301 173 223 239 296 319
356 43 32 193 149 333 259 140 110 308 238 373 284 64 46 117 85 117 87 0 7
-153 -68 -245 -121 -55 -32 -185 -114 -290 -183 -243 -160 -343 -221 -466
-283 -145 -72 -210 -94 -370 -123 -222 -41 -385 -94 -511 -168 -58 -33 -60
-27 -24 80 34 99 85 192 160 292 130 173 500 537 840 825 286 242 285 241 101
116 -130 -88 -236 -169 -322 -243 -34 -29 -108 -93 -165 -142 -57 -49 -227
-212 -378 -361 -354 -350 -383 -376 -550 -474 -201 -120 -366 -262 -464 -402
-76 -109 75 207 277 581 112 207 247 433 314 528 24 34 42 62 39 62 -7 0 -106
-106 -191 -205 -114 -133 -200 -259 -315 -460 -96 -167 -176 -294 -268 -422
-20 -29 -64 -71 -97 -94 -203 -144 -379 -317 -494 -486 -83 -122 -79 -63 9
127 32 69 67 154 80 190 87 259 226 609 259 655 4 6 20 33 35 60 l27 50 -31
-35 c-98 -111 -209 -306 -334 -590 -93 -209 -194 -409 -256 -501 -37 -56 -77
-98 -149 -158 -210 -173 -388 -389 -459 -555 -16 -37 -32 -64 -35 -60 -14 25
27 218 77 360 20 55 70 237 112 404 42 168 93 354 115 414 21 61 36 112 34
114 -11 11 -166 -379 -230 -578 -33 -101 -130 -362 -145 -387 -5 -10 -19 -40
-30 -67 -28 -67 -108 -185 -239 -354 -183 -236 -242 -326 -296 -452 l-20 -45
-3 75 c-7 154 40 343 170 685 128 335 180 462 238 575 27 52 48 95 46 97 -1 1
-27 -34 -56 -80 -74 -112 -166 -291 -243 -477 -180 -431 -391 -835 -510 -973
l-50 -58 17 -66 c8 -36 13 -70 9 -76 -3 -6 -1 -7 5 -3 9 5 11 -3 7 -28 -2 -20
-2 -36 0 -36 11 0 122 154 157 218 22 40 42 72 43 70 12 -13 106 -390 114
-453 12 -103 -1 -259 -29 -350 -27 -88 -110 -255 -160 -321 -61 -81 -137 -160
-147 -151 -13 14 -16 208 -4 348 9 110 18 152 56 266 25 75 44 138 42 140 -6
5 -110 -212 -139 -290 -15 -43 -44 -151 -62 -240 -33 -159 -70 -277 -85 -277
-10 0 -28 82 -42 190 -30 235 39 529 172 731 38 58 49 82 41 92 -7 8 -6 18 4
31 23 32 17 65 -17 97 -38 36 -44 36 -74 2 -24 -28 -52 -88 -36 -78 5 3 11 -2
15 -10 7 -19 -11 -30 -29 -15 -38 32 -215 -380 -215 -502 0 -15 -5 -30 -12
-34 -11 -7 -9 89 7 266 6 64 5 66 -28 103 -19 20 -37 37 -40 37 -12 0 -19 -82
-8 -93 17 -17 13 -38 -5 -35 -13 2 -24 -20 -50 -94 -60 -181 -122 -288 -240
-418 -125 -138 -280 -363 -329 -480 -117 -275 -110 -619 17 -901 l30 -67 -184
-268 c-273 -397 -358 -522 -547 -804 -95 -140 -176 -256 -180 -258 -22 -8
-121 487 -191 958 -30 206 -36 187 78 261 121 79 319 275 412 406 189 270 260
552 220 879 -33 273 -7 561 72 798 30 91 106 272 202 484 85 188 198 513 183
528 -6 7 -77 -132 -132 -261 -26 -60 -94 -204 -150 -320 -57 -115 -115 -239
-130 -275 -52 -124 -190 -379 -200 -369 -1 2 5 36 15 75 24 93 46 272 65 519
30 404 60 541 193 881 50 126 104 274 121 329 31 102 65 255 58 261 -2 2 -53
-112 -112 -253 -59 -142 -127 -296 -150 -343 -24 -47 -63 -137 -88 -201 -47
-121 -105 -244 -112 -237 -2 2 3 26 11 53 30 99 45 245 53 510 8 255 10 275
36 350 37 113 83 207 233 482 144 263 212 407 237 503 17 65 13 94 -5 44 -64
-169 -150 -325 -290 -524 -48 -69 -116 -172 -151 -230 -67 -114 -109 -173
-116 -166 -3 2 7 42 20 88 36 119 73 275 117 500 57 291 79 360 284 902 48
125 85 230 83 232 -2 2 -42 -76 -88 -173 -111 -234 -238 -469 -306 -568 -96
-138 -145 -179 -94 -77 73 146 137 355 171 561 26 156 58 256 221 689 126 335
196 542 238 709 33 128 24 119 -28 -27 -26 -74 -64 -174 -84 -222 -119 -285
-296 -633 -313 -615 -1 1 11 40 26 87 16 47 65 267 110 490 44 223 110 522
145 665 101 414 137 631 134 825 -1 87 -10 54 -44 -165 -64 -415 -222 -826
-407 -1062 -56 -70 -207 -215 -218 -208 -4 3 -10 51 -12 107 -4 70 -16 141
-37 221 -50 193 -58 452 -22 747 20 162 111 756 136 884 24 125 27 179 6 100z
m-319 -1558 c-5 -74 6 -148 48 -324 33 -137 46 -242 36 -296 -5 -25 -27 -59
-71 -109 -36 -39 -65 -77 -65 -83 0 -6 -7 -17 -16 -25 -8 -7 -24 -29 -34 -48
l-19 -36 -2 230 c-2 319 -5 325 -58 119 -56 -220 -70 -281 -71 -324 -1 -31 -7
-23 -61 84 -66 130 -66 128 -32 261 21 81 120 281 192 385 33 47 78 118 102
157 24 40 46 73 49 73 3 0 4 -29 2 -64z m545 -368 c-3 -18 -21 -125 -41 -238
-40 -235 -68 -334 -136 -475 -58 -119 -110 -202 -175 -275 -83 -93 -245 -219
-245 -190 0 14 60 134 145 290 59 108 135 282 135 310 0 6 -16 -12 -36 -41
-20 -30 -68 -91 -107 -137 -98 -114 -140 -170 -180 -236 -19 -31 -37 -53 -40
-49 -10 9 3 149 19 214 53 212 134 330 426 614 101 99 195 195 208 213 13 17
26 32 28 32 3 0 2 -15 -1 -32z m-1064 -336 c115 -181 213 -390 243 -517 30
-130 41 -304 25 -389 -13 -70 -17 -76 -36 -50 -63 85 -170 318 -230 499 -24
71 -34 91 -34 69 -2 -68 33 -227 81 -364 64 -185 90 -276 86 -297 -2 -12 -24
8 -69 63 -103 124 -162 237 -205 394 -14 50 -18 101 -18 225 0 151 28 497 41
519 8 12 29 -16 116 -152z m-341 -675 c16 -28 78 -110 139 -182 145 -170 191
-235 239 -337 72 -154 96 -298 86 -513 -3 -77 -10 -156 -14 -175 l-8 -35 -32
50 c-58 91 -141 261 -196 401 -29 77 -63 164 -75 194 l-22 55 5 -80 c9 -144
120 -530 202 -699 13 -27 22 -51 20 -53 -12 -12 -209 279 -270 395 -115 224
-157 513 -121 835 9 87 15 167 12 177 -9 36 8 21 35 -33z m1204 -168 c-13 -46
-41 -156 -61 -244 -93 -410 -175 -592 -342 -761 -70 -71 -131 -119 -140 -110
-13 13 30 120 122 306 80 159 135 301 135 345 0 5 -12 -8 -28 -31 -15 -22 -54
-76 -88 -120 -68 -88 -171 -240 -200 -294 l-19 -35 -3 60 c-10 172 70 376 230
585 49 66 405 396 415 386 2 -2 -7 -42 -21 -87z m5574 -546 c-1 -18 -74 -152
-109 -198 -88 -116 -222 -235 -324 -287 -70 -35 -297 -119 -297 -109 0 15 107
133 189 209 50 46 91 88 91 93 0 23 -143 -59 -259 -148 -30 -24 -56 -41 -58
-40 -6 7 50 132 78 173 90 131 279 234 494 267 55 9 118 23 140 31 47 17 55
18 55 9z m-835 -90 c-26 -291 -56 -425 -130 -580 -51 -108 -113 -193 -189
-257 -83 -72 -83 -73 -66 109 11 116 38 213 97 348 19 44 32 81 30 84 -7 7
-63 -53 -100 -107 -17 -24 -64 -125 -104 -223 -68 -169 -115 -260 -149 -288
-8 -6 -16 -10 -17 -8 -8 11 14 286 28 345 42 181 171 354 374 499 75 54 214
144 224 144 4 1 5 -29 2 -66z m-6141 -188 c38 -65 129 -176 237 -290 175 -185
261 -332 321 -550 34 -126 37 -450 3 -414 -7 8 -63 89 -124 180 -112 168 -186
298 -228 399 -22 54 -23 54 -23 20 0 -87 54 -227 202 -523 54 -110 97 -204 95
-210 -6 -18 -179 163 -229 238 -87 135 -134 246 -188 448 -36 134 -55 262 -75
502 -8 99 -18 195 -21 213 -8 43 -1 40 30 -13z m1278 -292 c-4 -59 -64 -386
-83 -458 -11 -41 -80 -188 -121 -261 -24 -41 -36 -57 -108 -149 -39 -49 -158
-157 -194 -177 -18 -10 -18 -7 -12 32 8 53 51 148 115 253 70 117 106 191 146
301 37 103 47 160 14 87 -25 -55 -133 -212 -216 -313 -36 -43 -78 -101 -95
-130 l-30 -53 6 85 c3 47 15 114 26 150 53 160 185 358 324 483 50 45 120 110
156 144 36 35 68 63 71 63 3 0 4 -26 1 -57z m4075 -141 c14 -224 5 -314 -38
-418 -57 -137 -151 -272 -234 -336 -27 -21 -78 -61 -112 -89 l-63 -50 0 34 c0
138 77 399 176 601 19 37 34 71 34 74 0 14 -65 -59 -111 -125 -59 -85 -99
-170 -181 -382 -62 -159 -86 -208 -98 -194 -14 16 10 221 38 333 75 294 173
462 346 597 63 48 207 139 227 142 3 1 10 -84 16 -187z m1673 86 c0 -12 -127
-123 -208 -181 -188 -135 -314 -195 -492 -233 -67 -14 -203 -17 -255 -5 l-30
7 50 26 c28 14 115 47 195 73 150 50 237 88 280 124 32 27 12 27 -56 2 -28
-11 -103 -27 -165 -36 -174 -25 -237 -42 -316 -86 -40 -22 -73 -35 -73 -30 0
16 132 133 199 176 136 87 291 151 401 165 76 9 470 8 470 -2z m-2470 -595 c0
-43 5 -138 11 -211 30 -343 -65 -611 -278 -787 -37 -30 -73 -55 -81 -55 -12 0
-13 19 -7 113 3 61 13 159 21 216 15 104 71 295 100 339 30 46 5 33 -35 -18
-57 -73 -95 -157 -136 -306 -56 -201 -83 -286 -107 -340 l-22 -49 -8 35 c-4
19 -8 121 -8 225 -1 159 2 202 19 266 24 95 77 202 146 294 77 105 338 353
373 354 8 1 12 -21 12 -76z m-4669 -20 c12 -20 69 -86 127 -146 199 -211 381
-503 453 -726 31 -97 53 -291 33 -291 -9 0 -198 222 -257 302 -15 20 -45 69
-68 110 -22 40 -37 62 -34 48 19 -68 75 -192 164 -360 93 -175 139 -276 130
-284 -6 -6 -124 133 -182 213 -88 120 -203 327 -262 472 -29 71 -77 300 -95
454 -7 55 -18 127 -26 161 -22 96 -19 105 17 47z m6020 -23 c30 -6 93 -13 141
-18 l88 -7 -123 -107 c-271 -239 -481 -360 -706 -408 -103 -22 -241 -36 -241
-24 0 5 69 49 153 99 173 102 393 248 452 300 39 34 36 33 -100 -29 -77 -35
-189 -87 -250 -116 -121 -58 -271 -120 -288 -120 -7 0 20 32 58 71 276 281
561 406 816 359z m-4676 -347 c4 -53 5 -162 2 -242 -7 -183 -29 -276 -104
-431 -52 -108 -62 -121 -172 -230 -102 -103 -243 -220 -263 -220 -13 0 53 172
107 280 67 135 151 318 160 350 4 14 -10 -2 -32 -35 -22 -33 -70 -91 -107
-130 -86 -87 -105 -112 -155 -205 -26 -49 -42 -69 -46 -59 -9 25 23 224 50
304 44 133 127 279 227 400 68 83 300 315 314 315 8 0 15 -33 19 -97z m2597
-373 c28 -208 29 -398 4 -490 -34 -126 -128 -288 -215 -374 -42 -42 -51 -47
-57 -32 -4 10 -4 83 -1 164 6 163 30 286 89 454 19 53 31 95 26 92 -14 -9 -84
-116 -112 -171 -37 -74 -72 -207 -94 -358 -11 -71 -27 -148 -37 -170 -16 -37
-17 -39 -26 -18 -18 47 -31 202 -26 298 13 246 95 443 261 625 32 36 75 90 94
120 20 30 43 63 52 74 14 17 15 17 18 -15 1 -19 12 -108 24 -199z m1558 -19
l35 -8 -100 -99 c-120 -119 -245 -205 -420 -289 -193 -93 -338 -135 -545 -159
-63 -8 -117 -12 -120 -9 -13 12 117 82 247 134 149 59 218 92 305 147 91 57
106 73 47 48 -19 -8 -97 -31 -174 -51 -169 -44 -241 -68 -306 -100 -27 -14
-49 -22 -49 -17 0 11 162 168 216 209 116 90 353 180 534 203 70 9 273 4 330
-9z m-5579 -186 c31 -38 112 -130 180 -203 226 -244 305 -347 369 -486 37 -79
101 -309 114 -411 l7 -50 -124 126 c-128 131 -260 297 -305 384 -32 63 -40 46
-12 -26 34 -86 101 -206 195 -350 103 -157 155 -243 155 -258 0 -25 -133 71
-221 158 -216 217 -358 563 -429 1046 -11 75 -20 148 -19 163 l0 27 17 -25 c9
-13 42 -56 73 -95z m1448 -450 c1 -91 -21 -298 -44 -412 -50 -248 -176 -492
-340 -658 -69 -71 -176 -155 -196 -155 -21 0 40 197 93 305 50 97 204 512 195
521 -9 10 -241 -371 -298 -491 l-49 -100 0 56 c0 144 57 356 141 523 91 181
170 280 369 461 l115 104 7 -37 c4 -20 7 -73 7 -117z m3414 -122 c-166 -183
-248 -265 -323 -322 -181 -137 -417 -211 -715 -227 -108 -5 -165 2 -172 22 -2
5 29 28 69 51 71 39 134 64 383 153 66 24 143 54 170 68 57 28 188 112 183
118 -2 2 -38 -9 -79 -25 -40 -16 -157 -48 -259 -71 -163 -36 -245 -59 -315
-84 -34 -13 96 102 180 158 142 94 295 161 440 192 38 8 133 19 210 24 77 6
172 16 210 24 39 7 78 14 88 15 12 1 -11 -32 -70 -96z m-2224 -729 c56 -281
43 -478 -46 -704 -33 -83 -63 -136 -134 -236 -58 -81 -86 -111 -94 -102 -3 2
-10 51 -16 107 -16 135 5 357 47 495 7 23 -96 -136 -127 -196 -12 -24 -24 -85
-34 -170 -8 -73 -20 -167 -26 -208 -11 -78 -46 -173 -59 -165 -4 3 -18 42 -31
87 -21 73 -24 105 -24 258 0 205 16 284 89 435 49 101 93 161 217 294 47 50
110 129 140 175 l54 84 12 -28 c7 -15 21 -72 32 -126z m-2368 -120 c211 -243
347 -503 415 -794 14 -58 28 -122 31 -144 6 -36 5 -38 -14 -27 -45 24 -153
157 -245 303 -98 155 -187 280 -173 243 4 -11 27 -80 52 -154 56 -169 57 -171
166 -316 86 -114 153 -232 145 -256 -4 -13 -193 143 -261 215 -26 28 -71 89
-100 136 -118 189 -142 275 -172 605 -17 189 -31 281 -51 339 -8 21 -14 45
-14 53 0 21 133 -101 221 -203z m3949 129 c0 -15 -316 -330 -385 -385 -200
-160 -392 -230 -630 -232 -118 -1 -247 14 -283 34 -27 14 132 101 263 143 44
14 141 45 215 68 131 40 224 80 265 114 l20 17 -20 -7 c-63 -22 -138 -38 -290
-60 -183 -26 -263 -44 -333 -75 -25 -11 -47 -19 -49 -16 -5 4 150 120 237 176
90 58 271 144 355 169 108 31 183 40 399 46 110 3 202 7 204 10 8 8 32 6 32
-2z m-2696 -75 c15 -73 36 -267 36 -334 0 -249 -130 -562 -306 -738 -94 -94
-274 -219 -291 -203 -8 9 57 188 89 246 128 232 229 453 214 468 -2 2 -20 -25
-40 -59 -21 -35 -83 -117 -138 -183 -55 -66 -122 -153 -149 -194 -56 -84 -58
-80 -34 64 50 304 221 624 439 819 43 39 98 88 120 108 23 21 44 38 47 38 4 0
9 -15 13 -32z m2089 -810 c-36 -67 -168 -199 -259 -260 -243 -162 -484 -228
-788 -216 -111 5 -216 23 -216 38 0 18 141 66 340 116 215 54 332 90 435 134
27 11 46 22 44 24 -2 2 -38 -2 -79 -9 -41 -8 -118 -14 -170 -15 -109 -1 -314
-16 -349 -26 -69 -20 73 98 204 170 140 77 201 90 385 81 192 -10 378 -8 415
4 65 20 69 16 38 -41z"/>
<path d="M4771 11134 c0 -11 3 -14 6 -6 3 7 2 16 -1 19 -3 4 -6 -2 -5 -13z"/>
<path d="M9663 7788 c-52 -20 -69 -38 -37 -38 18 0 94 42 94 53 0 4 -1 7 -2 6
-2 0 -27 -10 -55 -21z"/>
<path d="M9521 7739 c-23 -9 -23 -11 -8 -26 13 -13 23 -15 44 -7 16 5 28 16
28 24 0 18 -31 23 -64 9z"/>
<path d="M5708 7622 c-110 -195 -200 -378 -281 -567 -71 -169 -137 -364 -137
-406 0 -31 15 -22 34 21 11 26 26 42 42 46 21 5 29 22 60 123 48 153 144 402
260 674 52 121 93 222 91 224 -2 1 -33 -50 -69 -115z"/>
<path d="M9407 7705 c-22 -7 -46 -23 -54 -34 -17 -25 -33 -27 -33 -6 0 8 -4
15 -9 15 -8 0 -74 -21 -79 -26 -8 -6 33 -64 44 -64 25 0 157 60 180 81 18 17
21 25 13 36 -14 16 -14 16 -62 -2z"/>
<path d="M5350 6675 c-16 -19 -18 -77 -4 -82 9 -3 34 64 34 91 0 11 -18 6 -30
-9z"/>
<path d="M5277 6593 c-2 -4 -10 -33 -17 -64 -12 -54 -12 -56 16 -97 16 -23 32
-41 35 -42 9 0 17 33 25 100 6 52 4 57 -24 83 -16 16 -32 25 -35 20z"/>
<path d="M2290 6425 c0 -17 7 -28 23 -34 30 -12 31 -8 12 28 -19 38 -35 40
-35 6z"/>
</g>
</svg>
